<svg width="56" height="47" viewBox="0 0 56 47" fill="none" xmlns="http://www.w3.org/2000/svg">
<path d="M28 46.875C27.5417 46.875 27.0938 46.8125 26.6563 46.6875C26.2188 46.5625 25.8125 46.3958 25.4375 46.1875C23.7292 45.1458 21.9375 44.3541 20.0625 43.8125C18.1875 43.2708 16.25 43 14.25 43C12.5 43 10.7812 43.2291 9.09375 43.6875C7.40625 44.1458 5.79167 44.7916 4.25 45.625C3.375 46.0833 2.53125 46.0625 1.71875 45.5625C0.90625 45.0625 0.5 44.3333 0.5 43.375V13.25C0.5 12.7916 0.614583 12.3541 0.84375 11.9375C1.07292 11.5208 1.41667 11.2083 1.875 11C3.79167 9.99998 5.79167 9.24998 7.875 8.74998C9.95833 8.24998 12.0833 7.99998 14.25 7.99998C16.6667 7.99998 19.0313 8.31248 21.3438 8.93748C23.6563 9.56248 25.875 10.5 28 11.75V42C30.125 40.6666 32.3542 39.6666 34.6875 39C37.0208 38.3333 39.375 38 41.75 38C43.25 38 44.7188 38.125 46.1562 38.375C47.5938 38.625 49.0417 39 50.5 39.5V9.49998C51.125 9.70831 51.7396 9.92706 52.3438 10.1562C52.9479 10.3854 53.5417 10.6666 54.125 11C54.5833 11.2083 54.9271 11.5208 55.1563 11.9375C55.3854 12.3541 55.5 12.7916 55.5 13.25V43.375C55.5 44.3333 55.0938 45.0625 54.2812 45.5625C53.4688 46.0625 52.625 46.0833 51.75 45.625C50.2083 44.7916 48.5938 44.1458 46.9062 43.6875C45.2188 43.2291 43.5 43 41.75 43C39.75 43 37.8125 43.2708 35.9375 43.8125C34.0625 44.3541 32.2708 45.1458 30.5625 46.1875C30.1875 46.3958 29.7812 46.5625 29.3438 46.6875C28.9063 46.8125 28.4583 46.875 28 46.875ZM35.0625 33.625C34.6458 34 34.1979 34.0729 33.7188 33.8437C33.2396 33.6146 33 33.2291 33 32.6875V12.25C33 12.0833 33.0312 11.9271 33.0938 11.7812C33.1562 11.6354 33.25 11.5 33.375 11.375L43.375 1.37498C43.7917 0.958313 44.25 0.854146 44.75 1.06248C45.25 1.27081 45.5 1.66665 45.5 2.24998V23.6875C45.5 23.8958 45.4583 24.0729 45.375 24.2187C45.2917 24.3646 45.1875 24.5 45.0625 24.625L35.0625 33.625ZM23 39.5625V14.8125C21.625 14.2291 20.1979 13.7812 18.7188 13.4687C17.2396 13.1562 15.75 13 14.25 13C12.7083 13 11.2083 13.1458 9.75 13.4375C8.29167 13.7291 6.875 14.1666 5.5 14.75V39.5625C6.95833 39.0208 8.40625 38.625 9.84375 38.375C11.2812 38.125 12.75 38 14.25 38C15.75 38 17.2188 38.125 18.6562 38.375C20.0938 38.625 21.5417 39.0208 23 39.5625Z" fill="white"/>
</svg>
