<svg width="46" height="53" viewBox="0 0 46 53" fill="none" xmlns="http://www.w3.org/2000/svg">
<path d="M0.5 40.875V23C0.5 21.6667 0.989583 20.5417 1.96875 19.625C2.94792 18.7083 4.10417 18.2917 5.4375 18.375C8.72917 18.875 11.8646 19.8438 14.8438 21.2813C17.8229 22.7188 20.5417 24.5833 23 26.875C25.4583 24.5833 28.1771 22.7188 31.1562 21.2813C34.1354 19.8438 37.2708 18.875 40.5625 18.375C41.8958 18.2917 43.0521 18.7083 44.0312 19.625C45.0104 20.5417 45.5 21.6667 45.5 23V40.875C45.5 42.2083 45.0625 43.3438 44.1875 44.2812C43.3125 45.2188 42.2083 45.7292 40.875 45.8125C38.2083 46.2292 35.625 46.9167 33.125 47.875C30.625 48.8333 28.2917 50.1042 26.125 51.6875C25.6667 52.0625 25.1771 52.3438 24.6562 52.5313C24.1354 52.7188 23.5833 52.8125 23 52.8125C22.4167 52.8125 21.8646 52.7188 21.3438 52.5313C20.8229 52.3438 20.3333 52.0625 19.875 51.6875C17.7083 50.1042 15.375 48.8333 12.875 47.875C10.375 46.9167 7.79167 46.2292 5.125 45.8125C3.79167 45.7292 2.6875 45.2188 1.8125 44.2812C0.9375 43.3438 0.5 42.2083 0.5 40.875ZM23 47.75C25.625 45.7917 28.4167 44.2292 31.375 43.0625C34.3333 41.8958 37.375 41.125 40.5 40.75V23.5C37.4583 24.0417 34.4688 25.1354 31.5312 26.7813C28.5938 28.4271 25.75 30.625 23 33.375C20.25 30.625 17.4062 28.4271 14.4688 26.7813C11.5312 25.1354 8.54167 24.0417 5.5 23.5V40.75C8.625 41.125 11.6667 41.8958 14.625 43.0625C17.5833 44.2292 20.375 45.7917 23 47.75ZM23 20.5C20.25 20.5 17.8958 19.5208 15.9375 17.5625C13.9792 15.6042 13 13.25 13 10.5C13 7.75 13.9792 5.39583 15.9375 3.4375C17.8958 1.47917 20.25 0.5 23 0.5C25.75 0.5 28.1042 1.47917 30.0625 3.4375C32.0208 5.39583 33 7.75 33 10.5C33 13.25 32.0208 15.6042 30.0625 17.5625C28.1042 19.5208 25.75 20.5 23 20.5ZM23 15.5C24.375 15.5 25.5521 15.0104 26.5312 14.0313C27.5104 13.0521 28 11.875 28 10.5C28 9.125 27.5104 7.94792 26.5312 6.96875C25.5521 5.98958 24.375 5.5 23 5.5C21.625 5.5 20.4479 5.98958 19.4688 6.96875C18.4896 7.94792 18 9.125 18 10.5C18 11.875 18.4896 13.0521 19.4688 14.0313C20.4479 15.0104 21.625 15.5 23 15.5Z" fill="white"/>
</svg>
