<svg width="53" height="44" viewBox="0 0 53 44" fill="none" xmlns="http://www.w3.org/2000/svg">
<path d="M10.125 36.4375C9.29167 35.9792 8.64583 35.3646 8.1875 34.5938C7.72917 33.8229 7.5 32.9583 7.5 32V20L1.5 16.6875C1.04167 16.4375 0.708333 16.125 0.5 15.75C0.291667 15.375 0.1875 14.9583 0.1875 14.5C0.1875 14.0417 0.291667 13.625 0.5 13.25C0.708333 12.875 1.04167 12.5625 1.5 12.3125L22.625 0.8125C23 0.604167 23.3854 0.447917 23.7813 0.34375C24.1771 0.239583 24.5833 0.1875 25 0.1875C25.4167 0.1875 25.8229 0.239583 26.2188 0.34375C26.6146 0.447917 27 0.604167 27.375 0.8125L51.1875 13.8125C51.6042 14.0208 51.9271 14.3229 52.1563 14.7188C52.3854 15.1146 52.5 15.5417 52.5 16V32C52.5 32.7083 52.2604 33.3021 51.7813 33.7812C51.3021 34.2604 50.7083 34.5 50 34.5C49.2917 34.5 48.6979 34.2604 48.2188 33.7812C47.7396 33.3021 47.5 32.7083 47.5 32V17.25L42.5 20V32C42.5 32.9583 42.2708 33.8229 41.8125 34.5938C41.3542 35.3646 40.7083 35.9792 39.875 36.4375L27.375 43.1875C27 43.3958 26.6146 43.5521 26.2188 43.6562C25.8229 43.7604 25.4167 43.8125 25 43.8125C24.5833 43.8125 24.1771 43.7604 23.7813 43.6562C23.3854 43.5521 23 43.3958 22.625 43.1875L10.125 36.4375ZM25 23.75L42.125 14.5L25 5.25L7.875 14.5L25 23.75ZM25 38.8125L37.5 32.0625V22.625L27.4375 28.1875C27.0625 28.3958 26.6667 28.5521 26.25 28.6562C25.8333 28.7604 25.4167 28.8125 25 28.8125C24.5833 28.8125 24.1667 28.7604 23.75 28.6562C23.3333 28.5521 22.9375 28.3958 22.5625 28.1875L12.5 22.625V32.0625L25 38.8125Z" fill="white"/>
</svg>
