<svg width="56" height="39" viewBox="0 0 56 39" fill="none" xmlns="http://www.w3.org/2000/svg">
<path d="M12.25 21.4375H18.75L19.9375 24.75C20.0208 25 20.1667 25.1979 20.375 25.3438C20.5833 25.4896 20.8333 25.5625 21.125 25.5625C21.5833 25.5625 21.9479 25.375 22.2188 25C22.4896 24.625 22.5417 24.2292 22.375 23.8125L17.25 10.3125C17.1667 10.0625 17.0104 9.85417 16.7812 9.6875C16.5521 9.52083 16.2917 9.4375 16 9.4375H15C14.7083 9.4375 14.4479 9.52083 14.2188 9.6875C13.9896 9.85417 13.8333 10.0625 13.75 10.3125L8.625 23.8125C8.45833 24.2292 8.51042 24.625 8.78125 25C9.05208 25.375 9.41667 25.5625 9.875 25.5625C10.1667 25.5625 10.4271 25.4896 10.6562 25.3438C10.8854 25.1979 11.0417 24.9792 11.125 24.6875L12.25 21.4375ZM13.0625 19.125L15.4375 12.4375H15.5625L17.9375 19.125H13.0625ZM14.25 30C16.2083 30 18.1146 30.2188 19.9688 30.6562C21.8229 31.0938 23.6667 31.75 25.5 32.625V8C23.7917 7 21.9792 6.25 20.0625 5.75C18.1458 5.25 16.2083 5 14.25 5C12.75 5 11.2604 5.14583 9.78125 5.4375C8.30208 5.72917 6.875 6.16667 5.5 6.75V31.5C6.95833 31 8.40625 30.625 9.84375 30.375C11.2812 30.125 12.75 30 14.25 30ZM30.5 32.625C32.3333 31.75 34.1771 31.0938 36.0312 30.6562C37.8854 30.2188 39.7917 30 41.75 30C43.25 30 44.7188 30.125 46.1562 30.375C47.5938 30.625 49.0417 31 50.5 31.5V6.75C49.125 6.16667 47.6979 5.72917 46.2188 5.4375C44.7396 5.14583 43.25 5 41.75 5C39.7917 5 37.8542 5.25 35.9375 5.75C34.0208 6.25 32.2083 7 30.5 8V32.625ZM28 38.6875C27.4167 38.6875 26.8646 38.6146 26.3438 38.4688C25.8229 38.3229 25.3333 38.125 24.875 37.875C23.25 36.9167 21.5417 36.1979 19.75 35.7188C17.9583 35.2396 16.125 35 14.25 35C12.5 35 10.7812 35.2292 9.09375 35.6875C7.40625 36.1458 5.79167 36.7917 4.25 37.625C3.375 38.0833 2.53125 38.0625 1.71875 37.5625C0.90625 37.0625 0.5 36.3333 0.5 35.375V5.25C0.5 4.79167 0.614583 4.35417 0.84375 3.9375C1.07292 3.52083 1.41667 3.20833 1.875 3C3.79167 2 5.79167 1.25 7.875 0.75C9.95833 0.25 12.0833 0 14.25 0C16.6667 0 19.0313 0.3125 21.3438 0.9375C23.6563 1.5625 25.875 2.5 28 3.75C30.125 2.5 32.3438 1.5625 34.6562 0.9375C36.9688 0.3125 39.3333 0 41.75 0C43.9167 0 46.0417 0.25 48.125 0.75C50.2083 1.25 52.2083 2 54.125 3C54.5833 3.20833 54.9271 3.52083 55.1563 3.9375C55.3854 4.35417 55.5 4.79167 55.5 5.25V35.375C55.5 36.3333 55.0938 37.0625 54.2812 37.5625C53.4688 38.0625 52.625 38.0833 51.75 37.625C50.2083 36.7917 48.5938 36.1458 46.9062 35.6875C45.2188 35.2292 43.5 35 41.75 35C39.875 35 38.0417 35.2396 36.25 35.7188C34.4583 36.1979 32.75 36.9167 31.125 37.875C30.6667 38.125 30.1771 38.3229 29.6562 38.4688C29.1354 38.6146 28.5833 38.6875 28 38.6875ZM33 11.9375C33 11.5625 33.1354 11.1771 33.4062 10.7812C33.6771 10.3854 33.9792 10.125 34.3125 10C35.5208 9.58333 36.7292 9.27083 37.9375 9.0625C39.1458 8.85417 40.4167 8.75 41.75 8.75C42.5833 8.75 43.4063 8.80208 44.2188 8.90625C45.0313 9.01042 45.8333 9.14583 46.625 9.3125C47 9.39583 47.3229 9.60417 47.5938 9.9375C47.8646 10.2708 48 10.6458 48 11.0625C48 11.7708 47.7708 12.2917 47.3125 12.625C46.8542 12.9583 46.2708 13.0417 45.5625 12.875C44.9792 12.75 44.3646 12.6562 43.7188 12.5938C43.0729 12.5312 42.4167 12.5 41.75 12.5C40.6667 12.5 39.6042 12.6042 38.5625 12.8125C37.5208 13.0208 36.5208 13.2917 35.5625 13.625C34.8125 13.9167 34.1979 13.8958 33.7188 13.5625C33.2396 13.2292 33 12.6875 33 11.9375ZM33 25.6875C33 25.3125 33.1354 24.9271 33.4062 24.5312C33.6771 24.1354 33.9792 23.875 34.3125 23.75C35.5208 23.3333 36.7292 23.0208 37.9375 22.8125C39.1458 22.6042 40.4167 22.5 41.75 22.5C42.5833 22.5 43.4063 22.5521 44.2188 22.6562C45.0313 22.7604 45.8333 22.8958 46.625 23.0625C47 23.1458 47.3229 23.3542 47.5938 23.6875C47.8646 24.0208 48 24.3958 48 24.8125C48 25.5208 47.7708 26.0417 47.3125 26.375C46.8542 26.7083 46.2708 26.7917 45.5625 26.625C44.9792 26.5 44.3646 26.4063 43.7188 26.3438C43.0729 26.2812 42.4167 26.25 41.75 26.25C40.6667 26.25 39.6042 26.3438 38.5625 26.5312C37.5208 26.7188 36.5208 26.9792 35.5625 27.3125C34.8125 27.6042 34.1979 27.5938 33.7188 27.2812C33.2396 26.9688 33 26.4375 33 25.6875ZM33 18.8125C33 18.4375 33.1354 18.0521 33.4062 17.6562C33.6771 17.2604 33.9792 17 34.3125 16.875C35.5208 16.4583 36.7292 16.1458 37.9375 15.9375C39.1458 15.7292 40.4167 15.625 41.75 15.625C42.5833 15.625 43.4063 15.6771 44.2188 15.7812C45.0313 15.8854 45.8333 16.0208 46.625 16.1875C47 16.2708 47.3229 16.4792 47.5938 16.8125C47.8646 17.1458 48 17.5208 48 17.9375C48 18.6458 47.7708 19.1667 47.3125 19.5C46.8542 19.8333 46.2708 19.9167 45.5625 19.75C44.9792 19.625 44.3646 19.5312 43.7188 19.4688C43.0729 19.4062 42.4167 19.375 41.75 19.375C40.6667 19.375 39.6042 19.4792 38.5625 19.6875C37.5208 19.8958 36.5208 20.1667 35.5625 20.5C34.8125 20.7917 34.1979 20.7708 33.7188 20.4375C33.2396 20.1042 33 19.5625 33 18.8125Z" fill="white"/>
</svg>
